<svg xmlns="http://www.w3.org/2000/svg" style="display: none;">
  <!-- Plus -->
  <symbol id="icon-plus" viewBox="0 0 24 25" fill="none">
    <path d="M5 12.5H19" stroke="currentColor" stroke-width="1.75" stroke-linecap="round" stroke-linejoin="round"/>
    <path d="M12 5.5V19.5" stroke="currentColor" stroke-width="1.75" stroke-linecap="round" stroke-linejoin="round"/>
  </symbol>

  <!-- Close -->
  <symbol id="icon-close" viewBox="0 0 24 25" fill="none">
    <path d="M18 6.5L6 18.5" stroke="currentColor" stroke-width="1.75" stroke-linecap="round" stroke-linejoin="round"/>
    <path d="M6 6.5L18 18.5" stroke="currentColor" stroke-width="1.75" stroke-linecap="round" stroke-linejoin="round"/>
  </symbol>

  <!-- Check -->
  <symbol id="icon-check" viewBox="0 0 24 25" fill="none">
    <path d="M5 13.5L10 18.5L20 7.5" stroke="currentColor" stroke-width="1.75" stroke-linecap="round" stroke-linejoin="round"/>
  </symbol>

  <!-- Camera -->
  <symbol id="icon-camera" viewBox="0 0 24 25" fill="none">
    <path d="M12 17.5C14.4853 17.5 16.5 15.4853 16.5 13C16.5 10.5147 14.4853 8.5 12 8.5C9.51472 8.5 7.5 10.5147 7.5 13C7.5 15.4853 9.51472 17.5 12 17.5Z" stroke="currentColor" stroke-width="1.75" stroke-linecap="round" stroke-linejoin="round"/>
    <path d="M20 21.5H4C2.89543 21.5 2 20.6046 2 19.5V8.5C2 7.39543 2.89543 6.5 4 6.5H7L9 3.5H15L17 6.5H20C21.1046 6.5 22 7.39543 22 8.5V19.5C22 20.6046 21.1046 21.5 20 21.5Z" stroke="currentColor" stroke-width="1.75" stroke-linecap="round" stroke-linejoin="round"/>
  </symbol>

  <!-- Meal(Breakfast component) -->
  <symbol id='icon-meal' viewBox="0 0 24 25" fill="none" xmlns="http://www.w3.org/2000/svg">
    <path d="M3 2.5V9.5C3 10.6 3.9 11.5 5 11.5H9C9.53043 11.5 10.0391 11.2893 10.4142 10.9142C10.7893 10.5391 11 10.0304 11 9.5V2.5" stroke="black" stroke-width="1.75" stroke-linecap="round" stroke-linejoin="round"/>
    <path d="M7 2.5V22.5" stroke="black" stroke-width="1.75" stroke-linecap="round" stroke-linejoin="round"/>
    <path d="M21 15.5V2.5C19.6739 2.5 18.4021 3.02678 17.4645 3.96447C16.5268 4.90215 16 6.17392 16 7.5V13.5C16 14.6 16.9 15.5 18 15.5H21ZM21 15.5V22.5" stroke="black" stroke-width="1.75" stroke-linecap="round" stroke-linejoin="round"/>
 </symbol>

  <!-- Tour Type -->
 <symbol id='icon-tour-type' viewBox="0 0 24 25" fill="none" xmlns="http://www.w3.org/2000/svg">
    <path d="M13 8.5C13 5.74 10.54 3.5 7.5 3.5C4.46 3.5 2 5.74 2 8.5H4L5 7.5L6 8.5H10" stroke="#0B3857" stroke-width="1.75" stroke-linecap="round" stroke-linejoin="round"/>
    <path d="M13 7.64014C14.0126 6.89149 15.2407 6.49147 16.5 6.50014C19.54 6.50014 22 8.74014 22 11.5001H19L18 10.5001L17 11.5001H14" stroke="#0B3857" stroke-width="1.75" stroke-linecap="round" stroke-linejoin="round"/>
    <path d="M5.89 10.2105C3.74 12.3605 3.59 15.6805 5.54 17.6405L9.78 13.3905L10.48 12.6905L11.19 11.9805L13.31 9.86046C11.36 7.90046 8.04 8.06046 5.89 10.2105Z" stroke="#0B3857" stroke-width="1.75" stroke-linecap="round" stroke-linejoin="round"/>
    <path d="M11 16C11.5 18.5 10.83 20.5 10 22.5H14C16 17 13.5 10.5 13 8.5" stroke="#0B3857" stroke-width="1.75" stroke-linecap="round" stroke-linejoin="round"/>
 </symbol>

 <!-- See additional info -->
 <symbol id='icon-info' viewBox="0 0 16 17" fill="none" xmlns="http://www.w3.org/2000/svg">
    <path d="M8.00001 15.1673C11.6819 15.1673 14.6667 12.1825 14.6667 8.50065C14.6667 4.81875 11.6819 1.83398 8.00001 1.83398C4.31811 1.83398 1.33334 4.81875 1.33334 8.50065C1.33334 12.1825 4.31811 15.1673 8.00001 15.1673Z" stroke="black" stroke-width="1.16667" stroke-linecap="round" stroke-linejoin="round"/>
    <path d="M8 11.1667V8.5" stroke="black" stroke-width="1.16667" stroke-linecap="round" stroke-linejoin="round"/>
    <path d="M8 5.83398H8.00667" stroke="black" stroke-width="1.16667" stroke-linecap="round" stroke-linejoin="round"/>
</symbol>

 <!-- User Profile with border -->
<symbol id='icon-user-border' viewBox="0 0 24 25" fill="none" xmlns="http://www.w3.org/2000/svg">
<path d="M18 20.5C18 18.9087 17.3679 17.3826 16.2426 16.2574C15.1174 15.1321 13.5913 14.5 12 14.5C10.4087 14.5 8.88258 15.1321 7.75736 16.2574C6.63214 17.3826 6 18.9087 6 20.5" stroke="#0B3857" stroke-width="1.75" stroke-linecap="round" stroke-linejoin="round"/>
<path d="M12 14.5C14.2091 14.5 16 12.7091 16 10.5C16 8.29086 14.2091 6.5 12 6.5C9.79086 6.5 8 8.29086 8 10.5C8 12.7091 9.79086 14.5 12 14.5Z" stroke="#0B3857" stroke-width="1.75" stroke-linecap="round" stroke-linejoin="round"/>
<path d="M12 22.5C17.5228 22.5 22 18.0228 22 12.5C22 6.97715 17.5228 2.5 12 2.5C6.47715 2.5 2 6.97715 2 12.5C2 18.0228 6.47715 22.5 12 22.5Z" stroke="#0B3857" stroke-width="1.75" stroke-linecap="round" stroke-linejoin="round"/>
</symbol>

 <!-- User Profile without border -->
<symbol id='icon-user' viewBox="0 0 24 25" fill="none" xmlns="http://www.w3.org/2000/svg">
<path d="M12 13.5C14.7614 13.5 17 11.2614 17 8.5C17 5.73858 14.7614 3.5 12 3.5C9.23858 3.5 7 5.73858 7 8.5C7 11.2614 9.23858 13.5 12 13.5Z" stroke="#0B3857" stroke-width="1.75" stroke-linecap="round" stroke-linejoin="round"/>
<path d="M20 21.5C20 19.3783 19.1571 17.3434 17.6569 15.8431C16.1566 14.3429 14.1217 13.5 12 13.5C9.87827 13.5 7.84344 14.3429 6.34315 15.8431C4.84285 17.3434 4 19.3783 4 21.5" stroke="#0B3857" stroke-width="1.75" stroke-linecap="round" stroke-linejoin="round"/>
</symbol>

 <!-- Icon people -->
<symbol id='icon-people' viewBox="0 0 24 25" fill="none" xmlns="http://www.w3.org/2000/svg">
<path d="M18 21.5C18 19.3783 17.1571 17.3434 15.6569 15.8431C14.1566 14.3429 12.1217 13.5 10 13.5C7.87827 13.5 5.84344 14.3429 4.34315 15.8431C2.84285 17.3434 2 19.3783 2 21.5" stroke="#0B3857" stroke-width="1.75" stroke-linecap="round" stroke-linejoin="round"/>
<path d="M10 13.5C12.7614 13.5 15 11.2614 15 8.5C15 5.73858 12.7614 3.5 10 3.5C7.23858 3.5 5 5.73858 5 8.5C5 11.2614 7.23858 13.5 10 13.5Z" stroke="#0B3857" stroke-width="1.75" stroke-linecap="round" stroke-linejoin="round"/>
<path d="M22 20.4992C22 17.1292 20 13.9992 18 12.4992C18.6574 12.006 19.1831 11.3583 19.5306 10.6135C19.878 9.86867 20.0365 9.04969 19.992 8.22902C19.9475 7.40835 19.7014 6.6113 19.2755 5.90842C18.8495 5.20553 18.2569 4.61848 17.55 4.19922" stroke="#0B3857" stroke-width="1.75" stroke-linecap="round" stroke-linejoin="round"/>
</symbol>

 <!-- Icon calendar -->
<symbol id='icon-calendar' viewBox="0 0 24 25" fill="none" xmlns="http://www.w3.org/2000/svg">
<path d="M8 2.5V6.5" stroke="#0B3857" stroke-width="1.75" stroke-linecap="round" stroke-linejoin="round"/>
<path d="M16 2.5V6.5" stroke="#0B3857" stroke-width="1.75" stroke-linecap="round" stroke-linejoin="round"/>
<path d="M19 4.5H5C3.89543 4.5 3 5.39543 3 6.5V20.5C3 21.6046 3.89543 22.5 5 22.5H19C20.1046 22.5 21 21.6046 21 20.5V6.5C21 5.39543 20.1046 4.5 19 4.5Z" stroke="#0B3857" stroke-width="1.75" stroke-linecap="round" stroke-linejoin="round"/>
<path d="M3 10.5H21" stroke="#0B3857" stroke-width="1.75" stroke-linecap="round" stroke-linejoin="round"/>
</symbol>

 <!-- Icon location -->
<symbol id='icon-location' viewBox="0 0 24 25" fill="none" xmlns="http://www.w3.org/2000/svg">
<path d="M20 10.5C20 15.493 14.461 20.693 12.601 22.299C12.4277 22.4293 12.2168 22.4998 12 22.4998C11.7832 22.4998 11.5723 22.4293 11.399 22.299C9.539 20.693 4 15.493 4 10.5C4 8.37827 4.84285 6.34344 6.34315 4.84315C7.84344 3.34285 9.87827 2.5 12 2.5C14.1217 2.5 16.1566 3.34285 17.6569 4.84315C19.1571 6.34344 20 8.37827 20 10.5Z" stroke="#0B3857" stroke-width="1.75" stroke-linecap="round" stroke-linejoin="round"/>
<path d="M12 13.5C13.6569 13.5 15 12.1569 15 10.5C15 8.84315 13.6569 7.5 12 7.5C10.3431 7.5 9 8.84315 9 10.5C9 12.1569 10.3431 13.5 12 13.5Z" stroke="#0B3857" stroke-width="1.75" stroke-linecap="round" stroke-linejoin="round"/>
</symbol>

 <!-- Icon chevron  -->
<symbol id='icon-chevron' viewBox="0 0 24 25" fill="none" xmlns="http://www.w3.org/2000/svg">
<path d="M6 9.5L12 15.5L18 9.5" stroke="#0B3857" stroke-width="1.75" stroke-linecap="round" stroke-linejoin="round"/>
</symbol>

 <!-- Icon docs  -->
<symbol id='icon-docs' viewBox="0 0 16 17" fill="none" xmlns="http://www.w3.org/2000/svg">
<path d="M9.99999 1.83398H3.99999C3.64637 1.83398 3.30723 1.97446 3.05718 2.22451C2.80713 2.47456 2.66666 2.8137 2.66666 3.16732V13.834C2.66666 14.1876 2.80713 14.5267 3.05718 14.7768C3.30723 15.0268 3.64637 15.1673 3.99999 15.1673H12C12.3536 15.1673 12.6928 15.0268 12.9428 14.7768C13.1928 14.5267 13.3333 14.1876 13.3333 13.834V5.16732L9.99999 1.83398Z" stroke="#0B3857" stroke-width="1.16667" stroke-linecap="round" stroke-linejoin="round"/>
<path d="M9.33334 1.83398V4.50065C9.33334 4.85427 9.47382 5.19341 9.72387 5.44346C9.97392 5.69351 10.3131 5.83398 10.6667 5.83398H13.3333" stroke="#0B3857" stroke-width="1.16667" stroke-linecap="round" stroke-linejoin="round"/>
</symbol>

 <!-- Icon wallet  -->
<symbol id='icon-wallet' viewBox="0 0 16 17" fill="none" xmlns="http://www.w3.org/2000/svg">
<path d="M12.6667 5.16667V3.16667C12.6667 2.98986 12.5964 2.82029 12.4714 2.69526C12.3464 2.57024 12.1768 2.5 12 2.5H3.33333C2.97971 2.5 2.64057 2.64048 2.39052 2.89052C2.14048 3.14057 2 3.47971 2 3.83333C2 4.18696 2.14048 4.52609 2.39052 4.77614C2.64057 5.02619 2.97971 5.16667 3.33333 5.16667H13.3333C13.5101 5.16667 13.6797 5.2369 13.8047 5.36193C13.9298 5.48695 14 5.65652 14 5.83333V8.5M14 8.5H12C11.6464 8.5 11.3072 8.64048 11.0572 8.89052C10.8071 9.14057 10.6667 9.47971 10.6667 9.83333C10.6667 10.187 10.8071 10.5261 11.0572 10.7761C11.3072 11.0262 11.6464 11.1667 12 11.1667H14C14.1768 11.1667 14.3464 11.0964 14.4714 10.9714C14.5964 10.8464 14.6667 10.6768 14.6667 10.5V9.16667C14.6667 8.98986 14.5964 8.82029 14.4714 8.69526C14.3464 8.57024 14.1768 8.5 14 8.5Z" stroke="#0B3857" stroke-width="1.16667" stroke-linecap="round" stroke-linejoin="round"/>
<path d="M2 3.83398V13.1673C2 13.5209 2.14048 13.8601 2.39052 14.1101C2.64057 14.3602 2.97971 14.5007 3.33333 14.5007H13.3333C13.5101 14.5007 13.6797 14.4304 13.8047 14.3054C13.9298 14.1804 14 14.0108 14 13.834V11.1673" stroke="#0B3857" stroke-width="1.16667" stroke-linecap="round" stroke-linejoin="round"/>
</symbol>

 <!-- Icon message  -->
<symbol id='icon-message' viewBox="0 0 16 17" fill="none" xmlns="http://www.w3.org/2000/svg">
<path d="M13.3333 3.16602H2.66665C1.93027 3.16602 1.33331 3.76297 1.33331 4.49935V12.4993C1.33331 13.2357 1.93027 13.8327 2.66665 13.8327H13.3333C14.0697 13.8327 14.6666 13.2357 14.6666 12.4993V4.49935C14.6666 3.76297 14.0697 3.16602 13.3333 3.16602Z" stroke="#0B3857" stroke-width="1.16667" stroke-linecap="round" stroke-linejoin="round"/>
<path d="M14.6666 5.16602L8.68665 8.96602C8.48083 9.09497 8.24286 9.16336 7.99998 9.16336C7.7571 9.16336 7.51913 9.09497 7.31331 8.96602L1.33331 5.16602" stroke="#0B3857" stroke-width="1.16667" stroke-linecap="round" stroke-linejoin="round"/>
</symbol>

 <!-- Icon callendar with user inside  -->
<symbol id='icon-calendar-user' viewBox="0 0 16 17" fill="none" xmlns="http://www.w3.org/2000/svg">
<path d="M10.6667 1.83398V3.16732" stroke="#0B3857" stroke-width="1.16667" stroke-linecap="round" stroke-linejoin="round"/>
<path d="M4.66667 15.1667V13.8333C4.66667 13.4797 4.80715 13.1406 5.0572 12.8905C5.30724 12.6405 5.64638 12.5 6.00001 12.5H10C10.3536 12.5 10.6928 12.6405 10.9428 12.8905C11.1929 13.1406 11.3333 13.4797 11.3333 13.8333V15.1667" stroke="#0B3857" stroke-width="1.16667" stroke-linecap="round" stroke-linejoin="round"/>
<path d="M5.33333 1.83398V3.16732" stroke="#0B3857" stroke-width="1.16667" stroke-linecap="round" stroke-linejoin="round"/>
<path d="M8 9.83398C9.10457 9.83398 10 8.93855 10 7.83398C10 6.72941 9.10457 5.83398 8 5.83398C6.89543 5.83398 6 6.72941 6 7.83398C6 8.93855 6.89543 9.83398 8 9.83398Z" stroke="#0B3857" stroke-width="1.16667" stroke-linecap="round" stroke-linejoin="round"/>
<path d="M12.6667 3.16602H3.33333C2.59695 3.16602 2 3.76297 2 4.49935V13.8327C2 14.5691 2.59695 15.166 3.33333 15.166H12.6667C13.403 15.166 14 14.5691 14 13.8327V4.49935C14 3.76297 13.403 3.16602 12.6667 3.16602Z" stroke="#0B3857" stroke-width="1.16667" stroke-linecap="round" stroke-linejoin="round"/>
</symbol>

 <!-- Icon show password  -->
<symbol id='icon-show-password' viewBox="0 0 24 25" fill="none" xmlns="http://www.w3.org/2000/svg">
<path d="M2.06199 12.8474C1.97865 12.6229 1.97865 12.3759 2.06199 12.1514C2.87369 10.1832 4.2515 8.50042 6.02076 7.31628C7.79001 6.13214 9.87103 5.5 12 5.5C14.1289 5.5 16.21 6.13214 17.9792 7.31628C19.7485 8.50042 21.1263 10.1832 21.938 12.1514C22.0213 12.3759 22.0213 12.6229 21.938 12.8474C21.1263 14.8155 19.7485 16.4983 17.9792 17.6825C16.21 18.8666 14.1289 19.4988 12 19.4988C9.87103 19.4988 7.79001 18.8666 6.02076 17.6825C4.2515 16.4983 2.87369 14.8155 2.06199 12.8474Z" stroke="#0B3857" stroke-width="1.75" stroke-linecap="round" stroke-linejoin="round"/>
<path d="M12 15.5C13.6569 15.5 15 14.1569 15 12.5C15 10.8431 13.6569 9.5 12 9.5C10.3431 9.5 9 10.8431 9 12.5C9 14.1569 10.3431 15.5 12 15.5Z" stroke="#0B3857" stroke-width="1.75" stroke-linecap="round" stroke-linejoin="round"/>
</symbol>

 <!-- Icon hide password  -->
<symbol id='icon-hide-password'  viewBox="0 0 24 25" fill="none" xmlns="http://www.w3.org/2000/svg">
<path d="M11.83 9.5L15 12.66V12.5C15 11.7044 14.6839 10.9413 14.1213 10.3787C13.5587 9.81607 12.7956 9.5 12 9.5H11.83ZM7.53 10.3L9.08 11.85C9.03 12.06 9 12.27 9 12.5C9 13.2956 9.31607 14.0587 9.87868 14.6213C10.4413 15.1839 11.2044 15.5 12 15.5C12.22 15.5 12.44 15.47 12.65 15.42L14.2 16.97C13.53 17.3 12.79 17.5 12 17.5C10.6739 17.5 9.40215 16.9732 8.46447 16.0355C7.52678 15.0979 7 13.8261 7 12.5C7 11.71 7.2 10.97 7.53 10.3ZM2 4.77L4.28 7.05L4.73 7.5C3.08 8.8 1.78 10.5 1 12.5C2.73 16.89 7 20 12 20C13.55 20 15.03 19.7 16.38 19.16L16.81 19.58L19.73 22.5L21 21.23L3.27 3.5M12 7.5C13.3261 7.5 14.5979 8.02678 15.5355 8.96447C16.4732 9.90215 17 11.1739 17 12.5C17 13.14 16.87 13.76 16.64 14.32L19.57 17.25C21.07 16 22.27 14.36 23 12.5C21.27 8.11 17 5 12 5C10.6 5 9.26 5.25 8 5.7L10.17 7.85C10.74 7.63 11.35 7.5 12 7.5Z" fill="#232323"/>
</symbol>

 <!-- Icon trash  -->
<symbol id='icon-trash' viewBox="0 0 24 25" fill="none" xmlns="http://www.w3.org/2000/svg">
<path d="M3 6.5H21" stroke="black" stroke-width="1.75" stroke-linecap="round" stroke-linejoin="round"/>
<path d="M19 6.5V20.5C19 21.5 18 22.5 17 22.5H7C6 22.5 5 21.5 5 20.5V6.5" stroke="black" stroke-width="1.75" stroke-linecap="round" stroke-linejoin="round"/>
<path d="M8 6.5V4.5C8 3.5 9 2.5 10 2.5H14C15 2.5 16 3.5 16 4.5V6.5" stroke="black" stroke-width="1.75" stroke-linecap="round" stroke-linejoin="round"/>
</symbol>

 <!-- Icon logout  -->
<symbol id='icon-logout' viewBox="0 0 24 25" fill="none" xmlns="http://www.w3.org/2000/svg">
<path d="M9 21.5H5C4.46957 21.5 3.96086 21.2893 3.58579 20.9142C3.21071 20.5391 3 20.0304 3 19.5V5.5C3 4.96957 3.21071 4.46086 3.58579 4.08579C3.96086 3.71071 4.46957 3.5 5 3.5H9" stroke="#0B3857" stroke-width="1.75" stroke-linecap="round" stroke-linejoin="round"/>
<path d="M16 17.5L21 12.5L16 7.5" stroke="#0B3857" stroke-width="1.75" stroke-linecap="round" stroke-linejoin="round"/>
<path d="M21 12.5H9" stroke="#0B3857" stroke-width="1.75" stroke-linecap="round" stroke-linejoin="round"/>
</symbol>

 <!-- Icon edit  -->
<symbol id='icon-edit' viewBox="0 0 16 17" fill="none" xmlns="http://www.w3.org/2000/svg">
<path d="M14.116 5.04224C14.4685 4.68985 14.6665 4.21188 14.6666 3.71347C14.6666 3.21506 14.4687 2.73704 14.1163 2.38457C13.7639 2.0321 13.286 1.83405 12.7876 1.83398C12.2892 1.83392 11.8111 2.03185 11.4587 2.38424L2.56133 11.2836C2.40654 11.4379 2.29207 11.6279 2.228 11.8369L1.34733 14.7382C1.3301 14.7959 1.3288 14.8571 1.34356 14.9155C1.35833 14.9738 1.38861 15.0271 1.43119 15.0696C1.47378 15.1121 1.52708 15.1423 1.58544 15.157C1.64379 15.1716 1.70504 15.1702 1.76266 15.1529L4.66466 14.2729C4.87344 14.2094 5.06345 14.0956 5.218 13.9416L14.116 5.04224Z" stroke="black" stroke-width="1.16667" stroke-linecap="round" stroke-linejoin="round"/>
<path d="M10 3.83398L12.6667 6.50065" stroke="black" stroke-width="1.16667" stroke-linecap="round" stroke-linejoin="round"/>
</symbol>

 <!-- Icon arrow left  -->
<symbol id='icon-left' viewBox="0 0 24 25" fill="none" xmlns="http://www.w3.org/2000/svg">
<path d="M12 19.5L5 12.5L12 5.5" stroke="black" stroke-width="1.75" stroke-linecap="round" stroke-linejoin="round"/>
<path d="M19 12.5H5" stroke="black" stroke-width="1.75" stroke-linecap="round" stroke-linejoin="round"/>
</symbol>

 <!-- Icon suitcase (logo)  -->
<symbol id='icon-logo' viewBox="0 0 48 49" fill="none" xmlns="http://www.w3.org/2000/svg">
<path d="M19 36.5V18.5H16V36.5M25.5 36.5V18.5H22.5V36.5M32 36.5V18.5H29V36.5M34.06 12.5C36.22 12.5 38 14.26 38 16.5V38.5C38 40.76 36.22 42.5 34.06 42.5C34.06 43.66 33.12 44.5 32 44.5C31 44.5 30 43.66 30 42.5H18C18 43.66 17 44.5 16 44.5C14.88 44.5 13.94 43.66 13.94 42.5C11.78 42.5 9.99997 40.76 9.99997 38.5V16.5C9.99997 14.26 11.78 12.5 13.94 12.5H18V6.5C18 5.34 18.92 4.5 20 4.5H28C29.08 4.5 30 5.34 30 6.5V12.5M21 7.5V12.5H27V7.5M34.06 38.5V16.5H13.94V38.5" fill="currentColor"/>
</symbol>

    <symbol id='icon-plus' viewBox="0 0 32 32" fill="none" xmlns="http://www.w3.org/2000/svg">
        <rect x="0.5" y="0.5" width="31" height="31" rx="15.5" fill="white"/>
        <rect x="0.5" y="0.5" width="31" height="31" rx="15.5" stroke="#027EAC"/>
        <path d="M9 16H23" stroke="#027EAC" stroke-width="1.75" stroke-linecap="round" stroke-linejoin="round"/>
        <path d="M16 9V23" stroke="#027EAC" stroke-width="1.75" stroke-linecap="round" stroke-linejoin="round"/>
    </symbol>

    <symbol id='icon-minus' viewBox="0 0 32 32" fill="none" xmlns="http://www.w3.org/2000/svg">
        <path d="M9 16H23" stroke="#A2AEB9" stroke-width="1.75" stroke-linecap="round" stroke-linejoin="round"/>
    </symbol>



 <symbol id="icon-checkmark" viewBox="0 0 24 24">
    <path
      stroke-linecap="round"
      stroke-linejoin="round"
      stroke-width="2"
      d="M9 12l2 2 4-4m6 2a9 9 0 11-18 0 9 9 0 0118 0z"
    />
  </symbol>

  <symbol id="icon-close" viewBox="0 0 24 24">
    <path
      stroke-linecap="round"
      stroke-linejoin="round"
      stroke-width="2"
      stroke="currentColor"
      d="M6 18L18 6M6 6l12 12"
    />

</svg>
